<?xml version="1.0" encoding="utf-8"?>
<svg version="1.1" id="Layer_1" xmlns="http://www.w3.org/2000/svg" xmlns:xlink="http://www.w3.org/1999/xlink" x="0px" y="0px"
	 viewBox="0 0 1106.8 346.7" style="enable-background:new 0 0 1106.8 346.7;" xml:space="preserve">
<title>Eric Hu</title>
<path d="M11.2,16.8h175.9v78.4H94.4v50.3h86.7v56.7H94.4v54.2h94.1v78.9H11.2V16.8z"/>
<path d="M192.5,84.8H326v78.4h-53.6v172h-79.8V84.8z"/>
<path d="M330,84.8h80.3v250.4H330V84.8z M330.5,41.4h79.8v28.1h-79.8V41.4z"/>
<path d="M412.3,211c0-72.4,42.4-126.7,119.3-127.1c11.8,0,27.6,0.5,39.4,1v79.3h-31c-29.6,0.5-44.8,17.7-44.8,46.8
	c0,27.6,15.3,44.4,44.8,44.8h31.5v79.3c-6.4,0.5-33,1-38.9,1C454.7,335.7,412.3,281.4,412.3,211z"/>
<path d="M788.3,213.4h-53.2v121.7h-86.7V16.8h86.7V143h53.2V16.8H875v318.4h-86.7V213.4z"/>
<path d="M881.5,231.7l0.5-146.9h81.3v139c0,24.6,7.4,33,29.6,33h20.7v-172h79.8v250.4H986.4C914.5,335.2,881,302.1,881.5,231.7z"/>
</svg>
