<?xml version="1.0" encoding="utf-8"?>
<svg version="1.1" id="Layer_1" xmlns="http://www.w3.org/2000/svg" xmlns:xlink="http://www.w3.org/1999/xlink" x="0px" y="0px"
	 viewBox="0 0 1062.7 346.7" style="enable-background:new 0 0 1062.7 346.7;" xml:space="preserve">
<title>Studio</title>
<style type="text/css">
	.st0{fill:#CCCCCB;}
</style>
<path class="st0" d="M13,255.8h86.7C36.7,202.6,16,183.4,16,148.9c0-48.3,39.9-64.1,90.7-64.1h64.1v78.4h-64.6H95.8
	c68,59.6,82.8,73.4,82.8,110.4c0,42.9-33,61.6-90.2,61.6H13.5L13,255.8z"/>
<path class="st0" d="M179.1,246V39.5h79.8v45.3h40.4v78.4h-40.4v54.7c0,31.5,5.9,37,39.9,37.9v79.3c-1.5,0-17.2,0.5-34,0.5
	C203.7,335.7,179.1,306.1,179.1,246z"/>
<path class="st0" d="M303.3,231.7l0.5-146.9h81.3v139c0,24.6,7.4,33,29.6,33h20.7v-172h79.8v250.4H408.3
	C336.3,335.2,302.8,302.1,303.3,231.7z"/>
<path class="st0" d="M514.7,215.4c0-74.4,41.9-119.3,114.3-120.2c8.4,0,16.3,0.5,24.1,1.5V3h80.3L733,335.2c-7.9,0.5-71,1-93.6,1
	C564,336.1,514.7,292.8,514.7,215.4z M630.5,256.8c20.2,0,37.9-16.3,37.9-40.9c0-26.1-17.7-41.9-37.9-41.9
	c-20.2,0-37.9,15.8-37.9,41.9C592.6,240.5,610.3,256.8,630.5,256.8z"/>
<path class="st0" d="M738.9,84.8h80.3v250.4h-80.3V84.8z M739.4,41.4h79.8v28.1h-79.8V41.4z"/>
<path class="st0" d="M821.3,209.5c0.5-86.7,54.7-128.1,115.3-128.1c61.1,0,115.8,41.4,115.3,128.1c0,81.3-46.3,131.1-115.3,131.1
	C867.1,340.6,820.8,290.8,821.3,209.5z M936.6,260.7c21.7,0,37-17.7,37-50.3c0.5-31.5-15.3-50.3-37-50.3c-21.2,0-36,18.7-36,50.3
	C900.1,243,915.4,260.7,936.6,260.7z"/>
</svg>
